PathFileType	4	(X/Y/Z)	Patient4_TMGait_0pt8_01_left_39.trc.trc
DataRate	CameraRate	NumFrames	NumMarkers	Units	OrigDataRate	OrigDataStartFrame	OrigNumFrames
87.500000000000	87.500000000000	4	33	mm	87.500000000000	18	       141
Frame#	Time	Sacral			L.Shoulder			Chest			R.Shoulder			Neck			R.ASIS			L.ASIS			R.Thigh.Superior			R.Thigh.Lateral			R.Thigh.Inferior			R.Patella			L.Thigh.Superior			L.Thigh.Lateral			L.Thigh.Inferior			L.Patella			L.Shank.Superior			L.Shank.Lateral			L.Shank.Inferior			R.Shank.Superior			R.Shank.Lateral			R.Shank.Inferior			R.Heel			R.Midfoot.Superior			R.Midfoot.Lateral			R.Toe			L.Heel			L.Midfoot.Lateral			L.Midfoot.Superior			L.Toe			L.Elbow			L.Wrist			R.Elbow			R.Wrist			
		X1	Y1	Z1	X2	Y2	Z2	X3	Y3	Z3	X4	Y4	Z4	X5	Y5	Z5	X6	Y6	Z6	X7	Y7	Z7	X8	Y8	Z8	X9	Y9	Z9	X10	Y10	Z10	X11	Y11	Z11	X12	Y12	Z12	X13	Y13	Z13	X14	Y14	Z14	X15	Y15	Z15	X16	Y16	Z16	X17	Y17	Z17	X18	Y18	Z18	X19	Y19	Z19	X20	Y20	Z20	X21	Y21	Z21	X22	Y22	Z22	X23	Y23	Z23	X24	Y24	Z24	X25	Y25	Z25	X26	Y26	Z26	X27	Y27	Z27	X28	Y28	Z28	X29	Y29	Z29	X30	Y30	Z30	X31	Y31	Z31	X32	Y32	Z32	X33	Y33	Z33	

18	43.364285714286	857.528793215385	1007.499687147575	482.740919167675	1029.616557723647	1430.469440265362	296.761883140964	1147.321865436837	1352.686708239244	443.627542558122	1089.836783902292	1427.230851200520	627.093660669049	1045.668977607320	1488.469403677105	453.232805842262	1087.829497693565	937.367307960584	586.360193625210	1058.138831907929	952.768024551054	311.405284926748	1085.643628002831	725.516008914028	559.217044182298	980.585925637537	631.537040107482	618.751667173637	1042.152266691948	566.472223864536	539.108900286207	1023.909181431089	482.249411136759	542.676353058346	1132.217727961875	774.796079023043	337.879142590517	1087.667892852192	644.784118227917	258.398413288830	1194.405374321972	588.852284548267	319.675295099932	1225.854069254631	529.738743645152	314.418815191358	1215.796260053156	459.817600212252	304.709795684290	1164.847591402972	321.822025240784	257.008434501626	1266.515521286928	235.153417318794	308.476209775924	988.142892677198	398.265968194363	547.823082089776	906.829544960065	300.844902899103	608.350882014633	939.017959782084	203.748766250102	542.181282282341	792.432164214456	43.448205003475	509.308193460550	965.719222468890	97.014472710675	543.819239234961	876.557345068868	37.319844879000	582.535753883680	1084.769993786010	41.435076812893	569.431798685174	1207.709096670486	47.756688870959	352.299109528591	1281.842102164006	55.824895810647	272.392497449171	1342.930929515870	143.101826542286	288.343312262952	1479.727476125910	127.932993651796	264.506090895263	874.491152842187	1110.729734397977	210.241842516986	812.074705396876	859.332440685221	231.383098171432	1235.228649637255	1116.772473299294	728.213173413283	1479.339039281257	1142.374097648600	656.880338797149	
19	43.375714285714	858.257524901952	1006.044894628693	481.705695857287	1029.615040884377	1428.970562879212	295.162013779597	1147.453071935075	1351.332953270424	441.977324293309	1090.171239449070	1426.247999040511	625.262382070792	1045.742402594570	1487.054105688530	451.514075120621	1088.472881831626	935.672433279052	584.617710173841	1058.356340832829	951.211314558058	309.880889170551	1084.714850963694	723.560109830979	557.466142515139	979.041332148390	630.319370355375	617.530755484577	1039.449205432455	564.836818864501	537.475294389840	1020.315539059194	480.412257963992	541.072980334014	1131.574445704200	772.356956631289	336.720225198027	1085.556200976499	642.084069748948	258.330382084451	1192.361229910732	586.105158779526	319.116478240122	1223.583933477932	527.651696657153	314.356688950375	1214.292091819610	457.907971873973	305.102513327315	1164.831412288616	318.851425766375	259.253117469599	1268.330121655171	234.106367228501	310.360374747846	983.486407572941	396.746654017403	546.630569048431	901.351834952219	300.393436468674	607.731265718573	931.578223070115	202.853461767090	541.448956571028	783.259774901736	43.505499683543	509.299245284553	956.352788751317	96.704936306179	543.407420175255	867.337818507043	37.312781072558	582.555217246816	1075.522489014633	41.212521960359	569.487895415831	1212.647263224282	46.480482405186	356.091949873263	1286.132395831048	54.589841300892	275.664785847411	1346.380070638624	142.490384331592	290.544779698476	1483.180282837733	128.538874265377	266.053706944973	870.989414131927	1111.448052787785	209.472252744408	804.130435444339	861.282141850896	231.319735507053	1239.327531432851	1118.475487070772	725.352799846751	1479.723434544948	1158.825944850626	650.871816391601	
20	43.387142857143	859.204012190825	1004.428078901110	480.531593383901	1029.492269036029	1427.391320564896	293.408762394167	1147.554377195407	1350.012975994472	440.153264261837	1090.414070199589	1425.239934132686	623.272576505084	1045.710299421725	1485.577679042458	449.635324538331	1089.335975682982	933.938287599691	582.757937189692	1058.846792843245	949.587153428722	308.209863719042	1084.122208921919	721.538817557285	555.680036418247	977.836014736951	629.003775112476	616.260825805800	1037.159801987601	563.101261416832	535.849189431127	1017.096616736618	478.435271860628	539.451198610549	1131.594233652678	770.154499777355	335.410896318525	1084.112380557511	639.446802172863	258.476316950870	1191.036647594877	583.555780511451	318.608381628189	1221.843694052868	525.270693153512	314.404401094232	1212.835151797376	455.465756344258	305.675255893695	1163.649450246836	315.855303818090	261.769396151067	1268.131486661955	232.186171531611	312.553754753050	979.143549486234	395.102555717223	545.395883684771	896.093199234928	299.916500335440	607.056420852746	924.278560511683	201.925292894187	540.712520371236	774.112877094388	43.632453029504	509.298204598476	947.025169942808	96.411567906951	542.991978665426	858.148314385852	37.325997254510	582.568370057781	1066.298930799768	40.959005057270	569.559054370731	1213.930205565414	45.165555828731	360.313320386944	1286.447767218561	52.856373986827	279.068362951784	1346.815928511666	140.517133306179	292.952328963262	1483.244730372871	126.362582342336	267.121729409992	867.848980217465	1111.867156719605	208.572578888398	797.433261106926	862.717958623356	230.814064398061	1242.895630151400	1119.926009690512	722.467806773239	1478.758341434756	1174.144910730147	645.018593663410	
21	43.398571428571	860.346673385854	1002.664441169729	479.198473758315	1029.259840844678	1425.734457262627	291.498146538961	1147.629257313305	1348.731577047244	438.158933376324	1090.553113147929	1424.208853544755	621.130314448442	1045.575706325090	1484.047241906806	447.595011989345	1090.405315555476	932.172263342391	580.820093976404	1059.634194615450	947.905216566747	306.410641130717	1083.862567680031	719.454184922875	553.906992601255	976.946229559059	627.586627553591	614.941072354034	1035.300957734025	561.253585763781	534.256515496736	1014.277934052848	476.296055494712	537.820906268602	1132.290922599622	768.166400413600	333.984910619167	1083.333104296924	636.891780087815	258.802336068196	1190.392448474266	581.190248318630	318.207813450968	1220.583417143903	522.609117497089	314.649341068604	1211.473875864259	452.551157609169	306.420833167875	1161.547342241101	312.825458032462	264.367956291992	1266.230888157519	229.437817736549	314.950494865244	975.128200137100	393.327644278287	544.112082912053	891.050592472452	299.416812960835	606.320308902825	917.120693061828	200.972191046987	539.970543864980	764.983379095915	43.849399020567	509.316141066895	937.755630155384	96.160719038478	542.602736791022	848.988902348899	37.372465539238	582.582032051693	1057.108367706383	40.675431863587	569.645890408873	1211.948737200616	43.777340285860	364.693346578743	1283.266873850143	50.659033635308	282.405278746466	1344.679872838902	137.244813380777	295.479463319067	1480.416063664309	121.509811825788	267.754491635461	865.099188806889	1111.947598159427	207.535464536411	791.989138439238	863.583902717770	229.867491525756	1245.930118104121	1121.093090236949	719.591758053361	1476.588348677520	1188.223719668275	639.329082953639	
